<svg width="20" height="20" viewBox="0 0 20 20" fill="none" xmlns="http://www.w3.org/2000/svg">
<path d="M7.91448 17.9671C8.35952 17.5126 8.70023 16.964 8.91234 16.3603C9.12443 15.7567 9.20267 15.113 9.14147 14.4751L9.16378 14.4965C9.1013 13.7454 9.20106 12.9895 9.45606 12.2816C9.71113 11.5736 10.1153 10.9308 10.6403 10.3978C11.1654 9.86489 11.7987 9.45482 12.496 9.19616C13.1934 8.93749 13.9378 8.83653 14.6775 8.90028L14.6552 8.87882C15.5396 8.96294 16.4281 8.76804 17.1993 8.32068C17.9707 7.87331 18.5873 7.19526 18.9652 6.37901C19.343 5.56276 19.4637 4.64803 19.3108 3.75955C19.1579 2.87108 18.7388 2.05212 18.1108 1.41435C17.4827 0.77659 16.6761 0.351065 15.8011 0.195809C14.9261 0.040555 14.0253 0.163128 13.2214 0.546811C12.4175 0.930495 11.7497 1.55661 11.3091 2.33978C10.8685 3.12294 10.6766 4.02504 10.7594 4.92305L10.7383 4.90159C10.8007 5.65251 10.701 6.40821 10.4461 7.11596C10.1912 7.82371 9.78731 8.46644 9.26249 8.99931C8.73769 9.53219 8.1047 9.94235 7.40768 10.2012C6.71066 10.46 5.96641 10.5613 5.22688 10.4978L5.24801 10.5193C4.52541 10.4535 3.79814 10.574 3.1336 10.8696C2.46905 11.1651 1.88874 11.6262 1.44643 12.2102C1.00411 12.7941 0.714118 13.4819 0.603308 14.2099C0.492498 14.938 0.564459 15.6827 0.812526 16.3749C1.06059 17.0672 1.47674 17.6847 2.0224 18.1701C2.56806 18.6557 3.22557 18.9935 3.93403 19.1522C4.64248 19.311 5.37893 19.2856 6.07516 19.0784C6.77138 18.8713 7.40484 18.489 7.91684 17.9671H7.91448Z" fill="#282938"/>
</svg>
